<svg width="200" height="200" viewBox="0 0 200 200" fill="none" xmlns="http://www.w3.org/2000/svg">
  <defs>
    <linearGradient id="suiBlue" x1="50%" y1="0%" x2="50%" y2="100%">
      <stop offset="0%" style="stop-color:#6FB6FF;stop-opacity:1" />
      <stop offset="50%" style="stop-color:#4FA8E8;stop-opacity:1" />
      <stop offset="100%" style="stop-color:#3B8FD6;stop-opacity:1" />
    </linearGradient>
    <filter id="glow">
      <feGaussianBlur stdDeviation="4" result="blur"/>
      <feMerge>
        <feMergeNode in="blur"/>
        <feMergeNode in="SourceGraphic"/>
      </feMerge>
    </filter>
  </defs>
  
  <!-- Sui Water Drop Shape -->
  <path d="M100 30 
           C115 30, 128 38, 138 52 
           C148 66, 155 85, 155 105 
           C155 135, 130 160, 100 170 
           C70 160, 45 135, 45 105 
           C45 85, 52 66, 62 52 
           C72 38, 85 30, 100 30 Z" 
        fill="url(#suiBlue)" 
        filter="url(#glow)"/>
  
  <!-- Inner Wave -->
  <path d="M100 70 
           C115 70, 125 85, 125 100
           Q125 115, 118 125
           Q112 135, 100 142
           Q88 135, 82 125
           Q75 115, 75 100
           C75 85, 85 70, 100 70 Z
           M100 85
           Q95 90, 95 100
           Q95 108, 100 120
           Q105 108, 105 100
           Q105 90, 100 85 Z" 
        fill="rgba(13, 20, 25, 0.7)"/>
</svg>

